<?xml version="1.0" encoding="UTF-8" standalone="no"?>
<svg width="40px" height="32px" viewBox="0 0 40 32" version="1.1" xmlns="http://www.w3.org/2000/svg" xmlns:xlink="http://www.w3.org/1999/xlink" xmlns:sketch="http://www.bohemiancoding.com/sketch/ns">
    <!-- Generator: Sketch 3.2.2 (9983) - http://www.bohemiancoding.com/sketch -->
    <title>noun_4081_cc</title>
    <desc>Created with Sketch.</desc>
    <defs></defs>
    <g id="Page-1" stroke="none" stroke-width="1" fill="none" fill-rule="evenodd" sketch:type="MSPage">
        <g id="Desktop" sketch:type="MSArtboardGroup" transform="translate(-587.000000, -254.000000)">
            <g id="Post" sketch:type="MSLayerGroup" transform="translate(75.000000, 225.000000)">
                <g id="Post-1" transform="translate(1.000000, 0.000000)" sketch:type="MSShapeGroup">
                    <g id="Post-Content" transform="translate(34.000000, 16.000000)">
                        <g id="noun_4081_cc" transform="translate(477.000000, 13.000000)">
                            <path d="M28.8035644,7.45969231 C28.5651485,7.45969231 28.3330693,7.47733333 28.0986139,7.49005128 C28.3386139,8.62687179 28.4764356,9.85107692 28.4764356,11.1893333 C28.4764356,15.726359 25.12,20.3745641 21.2562376,24.2272821 L31.0950495,31.8711795 L31.0950495,26.1070769 C36.1588119,25.2237949 39.6039604,21.5314872 39.6039604,16.9538462 C39.6039604,11.7214359 34.9421782,7.45969231 28.8035644,7.45969231 L28.8035644,7.45969231 Z" id="Shape" fill="#9BA3C4"></path>
                            <path d="M13.419802,0 C6.08079208,0 0,5.14994872 0,11.5282051 C0,17.1093333 4.74653465,21.6393846 10.8007921,22.7163077 L10.8007921,30.1768205 C10.8007921,30.1768205 26.5120792,20.462359 26.5120792,11.1893333 C26.5120792,3.93641026 20.7584158,0 13.419802,0 L13.419802,0 Z M12.7647525,26.1070769 L12.7647525,21.0227692 C7.72,20.145641 2.29108911,16.9952821 2.29108911,11.5282051 C2.29108911,6.34584615 7.30376238,2.03487179 13.419802,2.03487179 C19.5358416,2.03487179 24.2205941,5.30502564 24.2205941,11.1889231 C24.2205941,18.176 12.7647525,26.1070769 12.7647525,26.1070769 L12.7647525,26.1070769 Z" id="_x3C_Path_x3E_" fill="#9B9B9B"></path>
                        </g>
                    </g>
                </g>
            </g>
        </g>
    </g>
</svg>