<?xml version="1.0" encoding="UTF-8" standalone="no"?>
<svg width="80px" height="68px" viewBox="0 0 80 68" version="1.1" xmlns="http://www.w3.org/2000/svg" xmlns:xlink="http://www.w3.org/1999/xlink" xmlns:sketch="http://www.bohemiancoding.com/sketch/ns">
    <!-- Generator: Sketch 3.2.2 (9983) - http://www.bohemiancoding.com/sketch -->
    <title>Shape</title>
    <desc>Created with Sketch.</desc>
    <defs></defs>
    <g id="Page-1" stroke="none" stroke-width="1" fill="none" fill-rule="evenodd" sketch:type="MSPage">
        <g id="Desktop" sketch:type="MSArtboardGroup" transform="translate(-76.000000, -24.000000)" fill="#F2520D">
            <g id="noun_89106" sketch:type="MSLayerGroup" transform="translate(76.000000, 24.000000)">
                <path d="M78.5,19.8 L60.9,2.2 C59.2,0.5 56.3,0.5 54.6,2.2 L46,10.8 L39.8,17 L34.9,12.1 C34.9,12.1 34.9,12.1 34.8,12 C34.8,12 34.8,12 34.7,11.9 L26,3.2 C24.2,1.4 21.2,1.4 19.4,3.2 L2.1,20.8 C0.3,22.6 0.3,25.6 2.1,27.4 L10.8,36.1 C10.8,36.1 10.8,36.1 10.9,36.2 C10.9,36.2 10.9,36.2 11,36.3 L19.1,44.4 L18.8,44.7 C18.6,44.9 18.5,45.1 18.4,45.3 C17.6,46.1 17.1,47.2 17.1,48.4 C17.1,49.6 17.6,50.7 18.4,51.5 L32.7,65.8 C33.5,66.6 34.7,67.1 35.8,67.1 C37,67.1 38.1,66.6 38.9,65.8 L39.7,65 L41.1,66.4 L41.2,66.5 C41.7,67 42.7,67.5 43.9,67.5 C44.7,67.5 45.8,67.3 47,66.1 L61.2,51.9 C63.6,49.5 62.9,47 61.5,45.4 L60.4,44.3 L70,34.7 L78.6,26.1 C79.4,25.3 79.9,24.1 79.9,22.9 C79.8,21.8 79.3,20.6 78.5,19.8 L78.5,19.8 Z M4.7,23.4 L22.2,5.9 C22.4,5.7 22.6,5.6 22.9,5.6 C23.2,5.6 23.4,5.7 23.6,5.9 L31,13.3 L12,32.1 L4.6,24.7 C4.3,24.4 4.3,23.8 4.7,23.4 L4.7,23.4 Z M35.7,63.4 C35.6,63.4 35.4,63.4 35.2,63.2 L20.9,48.9 C20.7,48.7 20.7,48.5 20.7,48.4 C20.7,48.3 20.7,48.1 20.9,47.9 L21.4,47.4 L22.4,46.4 L24.7,44.1 L24.8,44 C24.9,43.9 25.1,43.9 25.2,43.9 C25.3,43.9 25.5,43.9 25.7,44.1 L40,58.4 C40.3,58.7 40.3,59.2 40,59.4 L38.3,61.1 L36.2,63.2 C36,63.4 35.8,63.4 35.7,63.4 L35.7,63.4 Z M58.5,49.2 L44.3,63.5 C44,63.8 43.9,63.8 43.8,63.8 C43.8,63.8 43.7,63.8 43.6,63.7 L42.3,62.4 L42.6,62.1 C42.7,62 42.8,61.9 42.9,61.7 C43,61.6 43.1,61.5 43.2,61.4 C43.3,61.3 43.3,61.2 43.3,61.1 C43.4,60.9 43.5,60.8 43.6,60.6 L43.6,60.6 C44.2,59 43.9,57.1 42.6,55.8 L28.3,41.4 C28.1,41.2 27.9,41 27.6,40.8 C27.5,40.7 27.4,40.7 27.3,40.7 C27.1,40.6 27,40.5 26.8,40.4 C26.7,40.4 26.6,40.3 26.5,40.3 C26.3,40.2 26.2,40.2 26,40.2 L25.7,40.2 C25.5,40.2 25.3,40.1 25.1,40.1 L24.6,40.1 L24.2,40.1 C23.9,40.1 23.7,40.2 23.5,40.3 L23.4,40.3 C22.9,40.5 22.4,40.8 21.9,41.2 L21.6,41.5 L14.7,34.6 L33.6,16 L37.2,19.6 L27.2,29.6 C25.9,30.9 25.3,33.2 27.2,35.1 L31.1,39 C31.3,39.2 31.5,39.3 31.7,39.4 C32.3,39.8 33,40 33.7,40 C33.9,40 34.1,40 34.4,39.9 L34.5,39.9 C34.7,39.9 34.9,39.8 35.1,39.7 L35.2,39.7 C35.4,39.6 35.6,39.5 35.8,39.4 C35.8,39.4 35.9,39.4 35.9,39.3 C36.1,39.2 36.3,39 36.5,38.8 L43,32.3 L58.4,47.7 L58.6,47.9 C59,48.2 59.2,48.5 58.5,49.2 L58.5,49.2 Z M57.7,41.7 L45.7,29.7 L47.4,28 C47.8,27.6 47.9,27.2 47.9,26.7 C47.9,26.2 47.7,25.8 47.4,25.4 C46.7,24.7 45.5,24.7 44.8,25.4 L41.8,28.4 L34,36.2 C33.9,36.3 33.8,36.3 33.8,36.4 L33.8,36.4 L29.9,32.5 C29.8,32.4 29.8,32.4 29.8,32.3 C29.8,32.2 29.9,32.2 29.9,32.1 L47.4,14.6 L57.8,25 L66.1,33.3 L57.7,41.7 L57.7,41.7 Z M75.9,23.5 L68.6,30.8 L53.5,15.7 L49.9,12.1 L57.2,4.8 C57.4,4.6 57.6,4.6 57.8,4.6 C57.9,4.6 58.2,4.6 58.4,4.8 L76,22.4 C76.2,22.6 76.2,22.8 76.2,23 C76.1,23.1 76.1,23.3 75.9,23.5 L75.9,23.5 Z" id="Shape" sketch:type="MSShapeGroup"></path>
            </g>
        </g>
    </g>
</svg>